<?xml version="1.0" encoding="UTF-8"?>
<svg version="1.1" xmlns="http://www.w3.org/2000/svg" width="602" height="480">
<path d="M0 0 C1.30273705 -0.00445784 2.60547411 -0.00891569 3.94768804 -0.01350862 C5.39687567 -0.01341932 6.84606329 -0.01322947 8.29525089 -0.01294994 C9.83211439 -0.01624937 11.36897702 -0.0199751 12.90583855 -0.02409142 C17.13589309 -0.03411094 21.36593344 -0.03782815 25.59599817 -0.04048073 C30.15587077 -0.04438402 34.71573214 -0.05396245 39.27559757 -0.0626936 C50.29225617 -0.08245902 61.3089157 -0.09252507 72.3255876 -0.10142139 C77.51459363 -0.10580482 82.70359865 -0.11117155 87.89260387 -0.11641026 C105.14467596 -0.13342386 122.39674741 -0.14791719 139.6488266 -0.155159 C144.12618797 -0.15706887 148.60354933 -0.15898921 153.08091068 -0.16094494 C154.75013751 -0.16167055 154.75013751 -0.16167055 156.45308609 -0.16241082 C174.47275702 -0.1707079 192.49236149 -0.19603881 210.51200341 -0.22852562 C229.01614722 -0.2616136 247.52025727 -0.2796094 266.02443081 -0.28280324 C276.41223588 -0.2849669 286.79994409 -0.29369433 297.1877203 -0.31926441 C306.03626642 -0.34099529 314.88469216 -0.34901013 323.73326194 -0.33929763 C328.24526307 -0.33475964 332.75701596 -0.33660986 337.26898289 -0.35605907 C341.40657359 -0.37373982 345.54373584 -0.37265352 349.6813314 -0.35716178 C351.1713443 -0.35479311 352.66138726 -0.35907052 354.15135437 -0.37099043 C371.84442909 -0.50367119 385.45158519 4.61593495 398.38291264 16.71625233 C414.24025614 33.24099245 416.08577353 51.77729568 416.18430424 73.56815052 C416.32223181 146.58348746 416.32223181 146.58348746 449.70322514 209.13422108 C459.31497776 217.55718982 469.32984447 221.38458093 481.70322514 224.13422108 C481.70322514 234.69422108 481.70322514 245.25422108 481.70322514 256.13422108 C477.41322514 257.12422108 473.12322514 258.11422108 468.70322514 259.13422108 C454.74079758 264.89192316 444.91036946 273.80813987 437.70322514 287.13422108 C436.82924076 288.68689686 436.82924076 288.68689686 435.93760014 290.27093983 C420.04315596 320.02119294 416.92924147 355.97569125 416.44150639 389.14593983 C416.41559925 390.86657391 416.41559925 390.86657391 416.38916874 392.62196827 C416.30984658 398.38140402 416.26176391 404.13913687 416.25693607 409.89911366 C416.15189498 430.59615712 413.03289784 448.31087834 398.08213139 463.91937733 C384.17458358 476.86778391 369.16417918 480.44702345 350.65505314 480.39491749 C349.12965992 480.39794125 347.60426822 480.40183185 346.07887918 480.40651006 C341.90377206 480.41676996 337.72875102 480.41461336 333.55363691 480.41032946 C329.04431162 480.40785857 324.53500686 480.41688093 320.02568913 480.42436695 C311.19761143 480.43710611 302.36956417 480.4389086 293.54147884 480.43656669 C286.36406568 480.43478241 279.18666174 480.43653552 272.00924969 480.44079113 C270.47595033 480.44168391 270.47595033 480.44168391 268.91167522 480.44259473 C266.8349478 480.44380651 264.75822038 480.44502064 262.68149296 480.44623711 C243.21240414 480.45710973 223.74333265 480.45495153 204.27424286 480.44885226 C186.4740861 480.44368395 168.67398408 480.45493679 150.87383815 480.47395048 C132.58536941 480.49333563 114.29692655 480.50158366 96.00844747 480.49782723 C85.74540996 480.49591614 75.48241903 480.49839376 65.21938992 480.51254177 C56.48183526 480.52446518 47.74435585 480.52584971 39.00680014 480.5137516 C34.55164082 480.50786955 30.09661909 480.50674483 25.641469 480.51875401 C21.55722887 480.52963511 17.47324083 480.52648311 13.38901237 480.51249232 C11.91734153 480.5098515 10.44565079 480.51219248 8.97399952 480.52022818 C-8.77247 480.61034706 -23.84002184 476.29021826 -36.94521236 463.78265858 C-49.00660582 450.19856428 -54.56999914 434.72216788 -54.60536861 416.71625233 C-54.62800546 414.4841511 -54.65113599 412.25205484 -54.67470455 410.01996326 C-54.68384884 408.86411732 -54.69299313 407.70827137 -54.70241451 406.51739979 C-55.21171255 333.63321788 -55.21171255 333.63321788 -88.37880611 270.96234608 C-97.89139539 261.84397221 -107.44400408 259.1002451 -120.29677486 256.13422108 C-120.29677486 245.57422108 -120.29677486 235.01422108 -120.29677486 224.13422108 C-112.87177486 222.15422108 -112.87177486 222.15422108 -105.29677486 220.13422108 C-85.48222313 210.85932452 -74.71674077 193.7682597 -67.43300533 173.76166248 C-55.9841371 140.2796331 -54.92098634 105.14235368 -54.76283932 70.10663319 C-54.75271313 69.01041645 -54.74258694 67.91419971 -54.73215389 66.78476429 C-54.71344189 64.73330525 -54.70596363 62.68169591 -54.71259212 60.63016224 C-54.60303866 50.56750142 -52.3352591 41.03466223 -47.73427486 32.07172108 C-47.39057858 31.39762196 -47.04688229 30.72352283 -46.69277096 30.02899647 C-38.37087627 14.44445852 -25.10384713 5.69821379 -8.51014751 0.58352786 C-5.63994833 0.00088762 -2.92982231 0.00464738 0 0 Z " fill="#7C11F7" transform="translate(120.29677486419678,-0.13422107696533203)"/>
<path d="M0 0 C144.14997396 0 144.14997396 0 164.875 20.3125 C169.47193751 25.14755226 173.00923065 30.0474979 176 36 C176.58201172 37.14275391 176.58201172 37.14275391 177.17578125 38.30859375 C183.30439434 51.1675383 184.0603709 66.51763195 180.03125 80.171875 C174.36011968 95.72452027 164.75929961 108.09876029 149.80859375 115.6015625 C145.04732455 117.69301572 141.26232339 119.30617154 136 119 C136 119.66 136 120.32 136 121 C136.680625 120.99097656 137.36125 120.98195313 138.0625 120.97265625 C154.5940039 121.47827406 169.67218731 130.78991256 180.8984375 142.4921875 C192.76919865 156.65766827 196.36120997 173.96967123 195 192 C192.96025498 207.94646019 186.62619602 221.73838852 175 233 C174.36320313 233.63421875 173.72640625 234.2684375 173.0703125 234.921875 C132.96974653 272.52655513 31.24785739 256 0 256 C0 171.52 0 87.04 0 0 Z " fill="#F6EFFD" transform="translate(209,112)"/>
<path d="M0 0 C16.3040625 -0.12375 16.3040625 -0.12375 32.9375 -0.25 C36.33281006 -0.28641602 39.72812012 -0.32283203 43.22631836 -0.36035156 C45.9724871 -0.37205387 48.71866287 -0.38224202 51.46484375 -0.390625 C52.4952755 -0.40630524 52.4952755 -0.40630524 53.54652405 -0.42230225 C69.88064564 -0.65780112 87.87551738 1.71279727 100.40234375 13.203125 C107.29300539 20.95301339 110.39342682 29.6107693 110.25 39.9375 C110.24323242 40.64261719 110.23646484 41.34773438 110.22949219 42.07421875 C110.02239479 52.47725074 106.90002694 61.59145068 99.8046875 69.33984375 C89.5660176 78.75853359 74.66811796 82.13878832 61.07666016 82.11352539 C60.40190832 82.11364593 59.72715649 82.11376646 59.03195763 82.11389065 C56.86762464 82.11314972 54.7033799 82.10555922 52.5390625 82.09765625 C51.19490602 82.09618429 49.85074897 82.09516514 48.5065918 82.09460449 C43.5460524 82.08938109 38.58552532 82.07541982 33.625 82.0625 C22.52875 82.041875 11.4325 82.02125 0 82 C0 54.94 0 27.88 0 0 Z " fill="#7711F1" transform="translate(251,252)"/>
<path d="M0 0 C14.47875 -0.061875 14.47875 -0.061875 29.25 -0.125 C32.27317383 -0.14320801 35.29634766 -0.16141602 38.41113281 -0.18017578 C40.84179508 -0.18602404 43.27245932 -0.1911188 45.703125 -0.1953125 C46.93724121 -0.20554443 48.17135742 -0.21577637 49.44287109 -0.22631836 C63.21013315 -0.22905321 78.10880399 1.17888865 89.21484375 10.1640625 C95.96403538 17.10524426 99.28242626 25.66650253 99.3125 35.25 C99.1792243 44.30386278 97.75622653 51.80471684 92 59 C91.55269531 59.56332031 91.10539062 60.12664062 90.64453125 60.70703125 C81.80378158 70.72654754 67.38309915 74.29278507 54.51261902 75.2628479 C50.98644268 75.34284444 47.47204449 75.33881266 43.9453125 75.29296875 C42.25619751 75.28843689 42.25619751 75.28843689 40.53295898 75.28381348 C36.39687706 75.26832515 32.26092758 75.22644449 28.125 75.1875 C18.84375 75.125625 9.5625 75.06375 0 75 C0 50.25 0 25.5 0 0 Z " fill="#7C13F2" transform="translate(250,145)"/>
</svg>
